<svg width="24" height="24" viewBox="0 0 24 24" fill="none" xmlns="http://www.w3.org/2000/svg">
<path fill-rule="evenodd" clip-rule="evenodd" d="M4.23914 10.3912C4.25355 6.15065 7.7029 2.72465 11.9435 2.73906C16.1841 2.75347 19.6101 6.20282 19.5957 10.4434V10.5303C19.5435 13.2868 18.0043 15.8347 16.1174 17.826C15.0382 18.9466 13.8331 19.9387 12.5261 20.7825C12.1766 21.0848 11.6582 21.0848 11.3087 20.7825C9.36021 19.5142 7.65008 17.913 6.25653 16.0521C5.01449 14.4293 4.30931 12.4596 4.23914 10.4173V10.3912Z" stroke="#FF5722" stroke-width="1.5" stroke-linecap="round" stroke-linejoin="round"/>
<path d="M11.9174 13C13.2765 13 14.3783 11.8982 14.3783 10.5391C14.3783 9.18002 13.2765 8.07825 11.9174 8.07825C10.5583 8.07825 9.45654 9.18002 9.45654 10.5391C9.45654 11.8982 10.5583 13 11.9174 13Z" stroke="#FF5722" stroke-width="1.5" stroke-linecap="round" stroke-linejoin="round"/>
</svg>
