<svg width="0" height="0" class="hidden">
  <symbol fill="none" xmlns="http://www.w3.org/2000/svg" viewBox="0 0 24 24" id="Calling">
    <path fill-rule="evenodd" clip-rule="evenodd" d="M2.98995 4.87351C3.30627 4.34875 5.05018 2.44377 6.2929 2.50127C6.66469 2.53311 6.99334 2.75698 7.26037 3.01783H7.2614C7.87351 3.61756 9.62974 5.88094 9.72834 6.35745C9.97175 7.52611 8.57806 8.19978 9.00428 9.37769C10.0909 12.0364 11.9632 13.9086 14.6232 14.994C15.8002 15.4212 16.4739 14.0287 17.6427 14.2711C18.1192 14.3707 20.3839 16.1257 20.9826 16.7388C21.2425 17.0048 21.4684 17.3344 21.4992 17.7062C21.5454 19.0155 19.5222 20.7829 19.1278 21.0088C18.1973 21.6753 16.9833 21.663 15.5034 20.975C11.3737 19.2569 4.77391 12.782 3.02384 8.49657C2.35421 7.02496 2.30902 5.8029 2.98995 4.87351Z" stroke="#FF5722" stroke-width="1.5" stroke-linecap="round" stroke-linejoin="round"></path>
    <path d="M14.5654 2.75C18.2674 3.161 21.1904 6.081 21.6064 9.782" stroke="#FFA589" stroke-width="1.5" stroke-linecap="round" stroke-linejoin="round"></path>
    <path d="M14.5654 6.29297C16.3354 6.63797 17.7184 8.02097 18.0634 9.79097" stroke="#FFA589" stroke-width="1.5" stroke-linecap="round" stroke-linejoin="round"></path>
  </symbol>
  <symbol fill="none" xmlns="http://www.w3.org/2000/svg" viewBox="0 0 24 24" id="facebook">
    <path d="M9.101 23.6909V15.7109H6.627V12.0439H9.101V10.4639C9.101 6.37895 10.949 4.48595 14.959 4.48595C15.36 4.48595 15.914 4.52795 16.427 4.58895C16.8112 4.62848 17.1924 4.69363 17.568 4.78395V8.10895C17.3509 8.08869 17.133 8.07668 16.915 8.07295C16.6707 8.0666 16.4264 8.0636 16.182 8.06395C15.475 8.06395 14.923 8.15995 14.507 8.37295C14.2273 8.51326 13.9922 8.72862 13.828 8.99495C13.57 9.41495 13.454 9.98995 13.454 10.7469V12.0439H17.373L16.987 14.1469L16.7 15.7109H13.454V23.9559C19.396 23.2379 24 18.1789 24 12.0439C24 5.41695 18.627 0.0439453 12 0.0439453C5.373 0.0439453 0 5.41695 0 12.0439C0 17.6719 3.874 22.3939 9.101 23.6909Z" fill="#FF5722"></path>
  </symbol>
  <symbol fill="none" xmlns="http://www.w3.org/2000/svg" viewBox="0 0 24 24" id="linkedin">
    <g clip-path="url(#clip0_379_6)">
      <path d="M20.447 20.452H16.893V14.883C16.893 13.555 16.866 11.846 15.041 11.846C13.188 11.846 12.905 13.291 12.905 14.785V20.452H9.351V9H12.765V10.561H12.811C13.288 9.661 14.448 8.711 16.181 8.711C19.782 8.711 20.448 11.081 20.448 14.166L20.447 20.452ZM5.337 7.433C4.193 7.433 3.274 6.507 3.274 5.368C3.274 4.23 4.194 3.305 5.337 3.305C6.477 3.305 7.401 4.23 7.401 5.368C7.401 6.507 6.476 7.433 5.337 7.433ZM7.119 20.452H3.555V9H7.119V20.452ZM22.225 0H1.771C0.792 0 0 0.774 0 1.729V22.271C0 23.227 0.792 24 1.771 24H22.222C23.2 24 24 23.227 24 22.271V1.729C24 0.774 23.2 0 22.222 0H22.225Z" fill="#FF5722"></path>
    </g>
    <defs>
      <clipPath id="clip0_379_6">
        <rect width="24" height="24" fill="white"></rect>
      </clipPath>
    </defs>
  </symbol>
  <symbol fill="none" xmlns="http://www.w3.org/2000/svg" viewBox="0 0 24 24" id="Location">
    <path fill-rule="evenodd" clip-rule="evenodd" d="M4.23914 10.3912C4.25355 6.15065 7.7029 2.72465 11.9435 2.73906C16.1841 2.75347 19.6101 6.20282 19.5957 10.4434V10.5303C19.5435 13.2868 18.0043 15.8347 16.1174 17.826C15.0382 18.9466 13.8331 19.9387 12.5261 20.7825C12.1766 21.0848 11.6582 21.0848 11.3087 20.7825C9.36021 19.5142 7.65008 17.913 6.25653 16.0521C5.01449 14.4293 4.30931 12.4596 4.23914 10.4173V10.3912Z" stroke="#FF5722" stroke-width="1.5" stroke-linecap="round" stroke-linejoin="round"></path>
    <path d="M11.9174 13C13.2765 13 14.3783 11.8982 14.3783 10.5391C14.3783 9.18002 13.2765 8.07825 11.9174 8.07825C10.5583 8.07825 9.45654 9.18002 9.45654 10.5391C9.45654 11.8982 10.5583 13 11.9174 13Z" stroke="#FF5722" stroke-width="1.5" stroke-linecap="round" stroke-linejoin="round"></path>
  </symbol>
  <symbol fill="none" xmlns="http://www.w3.org/2000/svg" viewBox="0 0 24 24" id="Message">
    <path d="M17.2677 9.06116L13.0023 12.4954C12.1951 13.1283 11.0635 13.1283 10.2563 12.4954L5.95422 9.06116" stroke="#FFA589" stroke-width="1.5" stroke-linecap="round" stroke-linejoin="round"></path>
    <path fill-rule="evenodd" clip-rule="evenodd" d="M6.88787 3.5H16.3158C17.6752 3.51525 18.969 4.08993 19.896 5.0902C20.823 6.09048 21.3022 7.42903 21.222 8.79412V15.322C21.3022 16.6871 20.823 18.0256 19.896 19.0259C18.969 20.0262 17.6752 20.6009 16.3158 20.6161H6.88787C3.96796 20.6161 2 18.2407 2 15.322V8.79412C2 5.87545 3.96796 3.5 6.88787 3.5Z" stroke="#FF5722" stroke-width="1.5" stroke-linecap="round" stroke-linejoin="round"></path>
  </symbol>
  <symbol fill="none" xmlns="http://www.w3.org/2000/svg" viewBox="0 0 24 22" id="x">
    <path d="M18.901 0H22.581L14.541 9.19L24 21.693H16.594L10.794 14.109L4.156 21.693H0.474L9.074 11.863L0 0.00100005H7.594L12.837 6.933L18.901 0ZM17.61 19.491H19.649L6.486 2.087H4.298L17.61 19.491Z" fill="#FF5722"></path>
  </symbol>
</svg>